<?xml version="1.0" encoding="utf-8" ?>
<svg baseProfile="full" height="450mm" version="1.1" viewBox="0 0 600 450" width="600mm" xmlns="http://www.w3.org/2000/svg" xmlns:ev="http://www.w3.org/2001/xml-events" xmlns:xlink="http://www.w3.org/1999/xlink"><defs /><path d="M 3,7.0 L 3,11.333333333333334 L 13.0,11.333333333333334 L 13.0,15.333333333333334 L 3,15.333333333333334 L 3,19.666666666666668 L 11.434387285919994,19.666666666666668 L 11.434387285919994,23.666666666666668 L 3,23.666666666666668 L 3,28.0 A 35.0,35.0 0 0,0 23.0,21.722813232690143 L 23.0,7.0 L 15.0,7.0 L 15.0,3 L 11.0,3 L 11.0,7.0 L 3,7.0" fill="none" style="stroke:#000000;stroke-width:0.3" /><path d="M 3,35.0 L 3,39.333333333333336 L 13.0,39.333333333333336 L 13.0,43.333333333333336 L 3,43.333333333333336 L 3,47.66666666666667 L 11.434387285919994,47.66666666666667 L 11.434387285919994,51.66666666666667 L 3,51.66666666666667 L 3,56.0 A 35.0,35.0 0 0,0 23.0,49.72281323269014 L 23.0,35.0 L 15.0,35.0 L 15.0,31.0 L 11.0,31.0 L 11.0,35.0 L 3,35.0" fill="none" style="stroke:#000000;stroke-width:0.3" /><path d="M 3,63.0 L 3,67.33333333333333 L 13.0,67.33333333333333 L 13.0,71.33333333333333 L 3,71.33333333333333 L 3,75.66666666666667 L 11.434387285919994,75.66666666666667 L 11.434387285919994,79.66666666666667 L 3,79.66666666666667 L 3,84.0 A 35.0,35.0 0 0,0 23.0,77.72281323269014 L 23.0,63.0 L 15.0,63.0 L 15.0,59.0 L 11.0,59.0 L 11.0,63.0 L 3,63.0" fill="none" style="stroke:#000000;stroke-width:0.3" /><path d="M 3,91.0 L 3,95.33333333333333 L 13.0,95.33333333333333 L 13.0,99.33333333333333 L 3,99.33333333333333 L 3,103.66666666666667 L 11.434387285919994,103.66666666666667 L 11.434387285919994,107.66666666666667 L 3,107.66666666666667 L 3,112.0 A 35.0,35.0 0 0,0 23.0,105.72281323269014 L 23.0,91.0 L 15.0,91.0 L 15.0,87.0 L 11.0,87.0 L 11.0,91.0 L 3,91.0" fill="none" style="stroke:#000000;stroke-width:0.3" /><path d="M 3,119.0 L 3,123.33333333333333 L 13.0,123.33333333333333 L 13.0,127.33333333333333 L 3,127.33333333333333 L 3,131.66666666666666 L 11.434387285919994,131.66666666666666 L 11.434387285919994,135.66666666666666 L 3,135.66666666666666 L 3,140.0 A 35.0,35.0 0 0,0 23.0,133.72281323269016 L 23.0,119.0 L 15.0,119.0 L 15.0,115.0 L 11.0,115.0 L 11.0,119.0 L 3,119.0" fill="none" style="stroke:#000000;stroke-width:0.3" /><path d="M 3,147.0 L 3,151.33333333333334 L 13.0,151.33333333333334 L 13.0,155.33333333333334 L 3,155.33333333333334 L 3,159.66666666666666 L 11.434387285919994,159.66666666666666 L 11.434387285919994,163.66666666666666 L 3,163.66666666666666 L 3,168.0 A 35.0,35.0 0 0,0 23.0,161.72281323269016 L 23.0,147.0 L 15.0,147.0 L 15.0,143.0 L 11.0,143.0 L 11.0,147.0 L 3,147.0" fill="none" style="stroke:#000000;stroke-width:0.3" /><path d="M 3,175.0 L 3,179.33333333333334 L 13.0,179.33333333333334 L 13.0,183.33333333333334 L 3,183.33333333333334 L 3,187.66666666666666 L 11.434387285919994,187.66666666666666 L 11.434387285919994,191.66666666666666 L 3,191.66666666666666 L 3,196.0 A 35.0,35.0 0 0,0 23.0,189.72281323269016 L 23.0,175.0 L 15.0,175.0 L 15.0,171.0 L 11.0,171.0 L 11.0,175.0 L 3,175.0" fill="none" style="stroke:#000000;stroke-width:0.3" /><path d="M 3,203.0 L 3,207.33333333333334 L 13.0,207.33333333333334 L 13.0,211.33333333333334 L 3,211.33333333333334 L 3,215.66666666666666 L 11.434387285919994,215.66666666666666 L 11.434387285919994,219.66666666666666 L 3,219.66666666666666 L 3,224.0 A 35.0,35.0 0 0,0 23.0,217.72281323269016 L 23.0,203.0 L 15.0,203.0 L 15.0,199.0 L 11.0,199.0 L 11.0,203.0 L 3,203.0" fill="none" style="stroke:#000000;stroke-width:0.3" /><path d="M 3,231.0 L 3,235.33333333333334 L 13.0,235.33333333333334 L 13.0,239.33333333333334 L 3,239.33333333333334 L 3,243.66666666666666 L 11.434387285919994,243.66666666666666 L 11.434387285919994,247.66666666666666 L 3,247.66666666666666 L 3,252.0 A 35.0,35.0 0 0,0 23.0,245.72281323269016 L 23.0,231.0 L 15.0,231.0 L 15.0,227.0 L 11.0,227.0 L 11.0,231.0 L 3,231.0" fill="none" style="stroke:#000000;stroke-width:0.3" /><path d="M 3,259.0 L 3,263.3333333333333 L 13.0,263.3333333333333 L 13.0,267.3333333333333 L 3,267.3333333333333 L 3,271.6666666666667 L 11.434387285919994,271.6666666666667 L 11.434387285919994,275.6666666666667 L 3,275.6666666666667 L 3,280.0 A 35.0,35.0 0 0,0 23.0,273.72281323269016 L 23.0,259.0 L 15.0,259.0 L 15.0,255.0 L 11.0,255.0 L 11.0,259.0 L 3,259.0" fill="none" style="stroke:#000000;stroke-width:0.3" /><path d="M 3,287.0 L 3,291.3333333333333 L 13.0,291.3333333333333 L 13.0,295.3333333333333 L 3,295.3333333333333 L 3,299.6666666666667 L 11.434387285919994,299.6666666666667 L 11.434387285919994,303.6666666666667 L 3,303.6666666666667 L 3,308.0 A 35.0,35.0 0 0,0 23.0,301.72281323269016 L 23.0,287.0 L 15.0,287.0 L 15.0,283.0 L 11.0,283.0 L 11.0,287.0 L 3,287.0" fill="none" style="stroke:#000000;stroke-width:0.3" /><path d="M 3,315.0 L 3,319.3333333333333 L 13.0,319.3333333333333 L 13.0,323.3333333333333 L 3,323.3333333333333 L 3,327.6666666666667 L 11.434387285919994,327.6666666666667 L 11.434387285919994,331.6666666666667 L 3,331.6666666666667 L 3,336.0 A 35.0,35.0 0 0,0 23.0,329.72281323269016 L 23.0,315.0 L 15.0,315.0 L 15.0,311.0 L 11.0,311.0 L 11.0,315.0 L 3,315.0" fill="none" style="stroke:#000000;stroke-width:0.3" /><path d="M 3,343.0 L 3,347.3333333333333 L 13.0,347.3333333333333 L 13.0,351.3333333333333 L 3,351.3333333333333 L 3,355.6666666666667 L 11.434387285919994,355.6666666666667 L 11.434387285919994,359.6666666666667 L 3,359.6666666666667 L 3,364.0 A 35.0,35.0 0 0,0 23.0,357.72281323269016 L 23.0,343.0 L 15.0,343.0 L 15.0,339.0 L 11.0,339.0 L 11.0,343.0 L 3,343.0" fill="none" style="stroke:#000000;stroke-width:0.3" /><path d="M 26.0,7.0 L 26.0,11.333333333333334 L 36.0,11.333333333333334 L 36.0,15.333333333333334 L 26.0,15.333333333333334 L 26.0,19.666666666666668 L 34.434387285919996,19.666666666666668 L 34.434387285919996,23.666666666666668 L 26.0,23.666666666666668 L 26.0,28.0 A 35.0,35.0 0 0,0 46.0,21.722813232690143 L 46.0,7.0 L 38.0,7.0 L 38.0,3 L 34.0,3 L 34.0,7.0 L 26.0,7.0" fill="none" style="stroke:#000000;stroke-width:0.3" /><path d="M 26.0,35.0 L 26.0,39.333333333333336 L 36.0,39.333333333333336 L 36.0,43.333333333333336 L 26.0,43.333333333333336 L 26.0,47.66666666666667 L 34.434387285919996,47.66666666666667 L 34.434387285919996,51.66666666666667 L 26.0,51.66666666666667 L 26.0,56.0 A 35.0,35.0 0 0,0 46.0,49.72281323269014 L 46.0,35.0 L 38.0,35.0 L 38.0,31.0 L 34.0,31.0 L 34.0,35.0 L 26.0,35.0" fill="none" style="stroke:#000000;stroke-width:0.3" /><path d="M 26.0,63.0 L 26.0,67.33333333333333 L 36.0,67.33333333333333 L 36.0,71.33333333333333 L 26.0,71.33333333333333 L 26.0,75.66666666666667 L 34.434387285919996,75.66666666666667 L 34.434387285919996,79.66666666666667 L 26.0,79.66666666666667 L 26.0,84.0 A 35.0,35.0 0 0,0 46.0,77.72281323269014 L 46.0,63.0 L 38.0,63.0 L 38.0,59.0 L 34.0,59.0 L 34.0,63.0 L 26.0,63.0" fill="none" style="stroke:#000000;stroke-width:0.3" /><path d="M 26.0,91.0 L 26.0,95.33333333333333 L 36.0,95.33333333333333 L 36.0,99.33333333333333 L 26.0,99.33333333333333 L 26.0,103.66666666666667 L 34.434387285919996,103.66666666666667 L 34.434387285919996,107.66666666666667 L 26.0,107.66666666666667 L 26.0,112.0 A 35.0,35.0 0 0,0 46.0,105.72281323269014 L 46.0,91.0 L 38.0,91.0 L 38.0,87.0 L 34.0,87.0 L 34.0,91.0 L 26.0,91.0" fill="none" style="stroke:#000000;stroke-width:0.3" /><path d="M 26.0,119.0 L 26.0,123.33333333333333 L 36.0,123.33333333333333 L 36.0,127.33333333333333 L 26.0,127.33333333333333 L 26.0,131.66666666666666 L 34.434387285919996,131.66666666666666 L 34.434387285919996,135.66666666666666 L 26.0,135.66666666666666 L 26.0,140.0 A 35.0,35.0 0 0,0 46.0,133.72281323269016 L 46.0,119.0 L 38.0,119.0 L 38.0,115.0 L 34.0,115.0 L 34.0,119.0 L 26.0,119.0" fill="none" style="stroke:#000000;stroke-width:0.3" /><path d="M 26.0,147.0 L 26.0,151.33333333333334 L 36.0,151.33333333333334 L 36.0,155.33333333333334 L 26.0,155.33333333333334 L 26.0,159.66666666666666 L 34.434387285919996,159.66666666666666 L 34.434387285919996,163.66666666666666 L 26.0,163.66666666666666 L 26.0,168.0 A 35.0,35.0 0 0,0 46.0,161.72281323269016 L 46.0,147.0 L 38.0,147.0 L 38.0,143.0 L 34.0,143.0 L 34.0,147.0 L 26.0,147.0" fill="none" style="stroke:#000000;stroke-width:0.3" /><path d="M 26.0,175.0 L 26.0,179.33333333333334 L 36.0,179.33333333333334 L 36.0,183.33333333333334 L 26.0,183.33333333333334 L 26.0,187.66666666666666 L 34.434387285919996,187.66666666666666 L 34.434387285919996,191.66666666666666 L 26.0,191.66666666666666 L 26.0,196.0 A 35.0,35.0 0 0,0 46.0,189.72281323269016 L 46.0,175.0 L 38.0,175.0 L 38.0,171.0 L 34.0,171.0 L 34.0,175.0 L 26.0,175.0" fill="none" style="stroke:#000000;stroke-width:0.3" /><path d="M 26.0,203.0 L 26.0,207.33333333333334 L 36.0,207.33333333333334 L 36.0,211.33333333333334 L 26.0,211.33333333333334 L 26.0,215.66666666666666 L 34.434387285919996,215.66666666666666 L 34.434387285919996,219.66666666666666 L 26.0,219.66666666666666 L 26.0,224.0 A 35.0,35.0 0 0,0 46.0,217.72281323269016 L 46.0,203.0 L 38.0,203.0 L 38.0,199.0 L 34.0,199.0 L 34.0,203.0 L 26.0,203.0" fill="none" style="stroke:#000000;stroke-width:0.3" /><path d="M 26.0,231.0 L 26.0,235.33333333333334 L 36.0,235.33333333333334 L 36.0,239.33333333333334 L 26.0,239.33333333333334 L 26.0,243.66666666666666 L 34.434387285919996,243.66666666666666 L 34.434387285919996,247.66666666666666 L 26.0,247.66666666666666 L 26.0,252.0 A 35.0,35.0 0 0,0 46.0,245.72281323269016 L 46.0,231.0 L 38.0,231.0 L 38.0,227.0 L 34.0,227.0 L 34.0,231.0 L 26.0,231.0" fill="none" style="stroke:#000000;stroke-width:0.3" /><path d="M 26.0,259.0 L 26.0,263.3333333333333 L 36.0,263.3333333333333 L 36.0,267.3333333333333 L 26.0,267.3333333333333 L 26.0,271.6666666666667 L 34.434387285919996,271.6666666666667 L 34.434387285919996,275.6666666666667 L 26.0,275.6666666666667 L 26.0,280.0 A 35.0,35.0 0 0,0 46.0,273.72281323269016 L 46.0,259.0 L 38.0,259.0 L 38.0,255.0 L 34.0,255.0 L 34.0,259.0 L 26.0,259.0" fill="none" style="stroke:#000000;stroke-width:0.3" /><path d="M 49.0,7.0 L 49.0,11.333333333333334 L 59.0,11.333333333333334 L 59.0,15.333333333333334 L 49.0,15.333333333333334 L 49.0,19.666666666666668 L 57.434387285919996,19.666666666666668 L 57.434387285919996,23.666666666666668 L 49.0,23.666666666666668 L 49.0,28.0 A 35.0,35.0 0 0,0 69.0,21.722813232690143 L 69.0,7.0 L 61.0,7.0 L 61.0,3 L 57.0,3 L 57.0,7.0 L 49.0,7.0" fill="none" style="stroke:#000000;stroke-width:0.3" /><path d="M 49.0,35.0 L 49.0,39.333333333333336 L 59.0,39.333333333333336 L 59.0,43.333333333333336 L 49.0,43.333333333333336 L 49.0,47.66666666666667 L 57.434387285919996,47.66666666666667 L 57.434387285919996,51.66666666666667 L 49.0,51.66666666666667 L 49.0,56.0 A 35.0,35.0 0 0,0 69.0,49.72281323269014 L 69.0,35.0 L 61.0,35.0 L 61.0,31.0 L 57.0,31.0 L 57.0,35.0 L 49.0,35.0" fill="none" style="stroke:#000000;stroke-width:0.3" /><path d="M 49.0,63.0 L 49.0,67.33333333333333 L 59.0,67.33333333333333 L 59.0,71.33333333333333 L 49.0,71.33333333333333 L 49.0,75.66666666666667 L 57.434387285919996,75.66666666666667 L 57.434387285919996,79.66666666666667 L 49.0,79.66666666666667 L 49.0,84.0 A 35.0,35.0 0 0,0 69.0,77.72281323269014 L 69.0,63.0 L 61.0,63.0 L 61.0,59.0 L 57.0,59.0 L 57.0,63.0 L 49.0,63.0" fill="none" style="stroke:#000000;stroke-width:0.3" /><path d="M 49.0,91.0 L 49.0,95.33333333333333 L 59.0,95.33333333333333 L 59.0,99.33333333333333 L 49.0,99.33333333333333 L 49.0,103.66666666666667 L 57.434387285919996,103.66666666666667 L 57.434387285919996,107.66666666666667 L 49.0,107.66666666666667 L 49.0,112.0 A 35.0,35.0 0 0,0 69.0,105.72281323269014 L 69.0,91.0 L 61.0,91.0 L 61.0,87.0 L 57.0,87.0 L 57.0,91.0 L 49.0,91.0" fill="none" style="stroke:#000000;stroke-width:0.3" /><path d="M 49.0,119.0 L 49.0,123.33333333333333 L 59.0,123.33333333333333 L 59.0,127.33333333333333 L 49.0,127.33333333333333 L 49.0,131.66666666666666 L 57.434387285919996,131.66666666666666 L 57.434387285919996,135.66666666666666 L 49.0,135.66666666666666 L 49.0,140.0 A 35.0,35.0 0 0,0 69.0,133.72281323269016 L 69.0,119.0 L 61.0,119.0 L 61.0,115.0 L 57.0,115.0 L 57.0,119.0 L 49.0,119.0" fill="none" style="stroke:#000000;stroke-width:0.3" /><path d="M 49.0,147.0 L 49.0,151.33333333333334 L 59.0,151.33333333333334 L 59.0,155.33333333333334 L 49.0,155.33333333333334 L 49.0,159.66666666666666 L 57.434387285919996,159.66666666666666 L 57.434387285919996,163.66666666666666 L 49.0,163.66666666666666 L 49.0,168.0 A 35.0,35.0 0 0,0 69.0,161.72281323269016 L 69.0,147.0 L 61.0,147.0 L 61.0,143.0 L 57.0,143.0 L 57.0,147.0 L 49.0,147.0" fill="none" style="stroke:#000000;stroke-width:0.3" /><path d="M 49.0,175.0 L 49.0,179.33333333333334 L 59.0,179.33333333333334 L 59.0,183.33333333333334 L 49.0,183.33333333333334 L 49.0,187.66666666666666 L 57.434387285919996,187.66666666666666 L 57.434387285919996,191.66666666666666 L 49.0,191.66666666666666 L 49.0,196.0 A 35.0,35.0 0 0,0 69.0,189.72281323269016 L 69.0,175.0 L 61.0,175.0 L 61.0,171.0 L 57.0,171.0 L 57.0,175.0 L 49.0,175.0" fill="none" style="stroke:#000000;stroke-width:0.3" /><path d="M 49.0,203.0 L 49.0,207.33333333333334 L 59.0,207.33333333333334 L 59.0,211.33333333333334 L 49.0,211.33333333333334 L 49.0,215.66666666666666 L 57.434387285919996,215.66666666666666 L 57.434387285919996,219.66666666666666 L 49.0,219.66666666666666 L 49.0,224.0 A 35.0,35.0 0 0,0 69.0,217.72281323269016 L 69.0,203.0 L 61.0,203.0 L 61.0,199.0 L 57.0,199.0 L 57.0,203.0 L 49.0,203.0" fill="none" style="stroke:#000000;stroke-width:0.3" /><path d="M 49.0,231.0 L 49.0,235.33333333333334 L 59.0,235.33333333333334 L 59.0,239.33333333333334 L 49.0,239.33333333333334 L 49.0,243.66666666666666 L 57.434387285919996,243.66666666666666 L 57.434387285919996,247.66666666666666 L 49.0,247.66666666666666 L 49.0,252.0 A 35.0,35.0 0 0,0 69.0,245.72281323269016 L 69.0,231.0 L 61.0,231.0 L 61.0,227.0 L 57.0,227.0 L 57.0,231.0 L 49.0,231.0" fill="none" style="stroke:#000000;stroke-width:0.3" /><path d="M 49.0,259.0 L 49.0,263.3333333333333 L 59.0,263.3333333333333 L 59.0,267.3333333333333 L 49.0,267.3333333333333 L 49.0,271.6666666666667 L 57.434387285919996,271.6666666666667 L 57.434387285919996,275.6666666666667 L 49.0,275.6666666666667 L 49.0,280.0 A 35.0,35.0 0 0,0 69.0,273.72281323269016 L 69.0,259.0 L 61.0,259.0 L 61.0,255.0 L 57.0,255.0 L 57.0,259.0 L 49.0,259.0" fill="none" style="stroke:#000000;stroke-width:0.3" /><path d="M 49.0,287.0 L 49.0,291.3333333333333 L 59.0,291.3333333333333 L 59.0,295.3333333333333 L 49.0,295.3333333333333 L 49.0,299.6666666666667 L 57.434387285919996,299.6666666666667 L 57.434387285919996,303.6666666666667 L 49.0,303.6666666666667 L 49.0,308.0 A 35.0,35.0 0 0,0 69.0,301.72281323269016 L 69.0,287.0 L 61.0,287.0 L 61.0,283.0 L 57.0,283.0 L 57.0,287.0 L 49.0,287.0" fill="none" style="stroke:#000000;stroke-width:0.3" /><path d="M 49.0,315.0 L 49.0,319.3333333333333 L 59.0,319.3333333333333 L 59.0,323.3333333333333 L 49.0,323.3333333333333 L 49.0,327.6666666666667 L 57.434387285919996,327.6666666666667 L 57.434387285919996,331.6666666666667 L 49.0,331.6666666666667 L 49.0,336.0 A 35.0,35.0 0 0,0 69.0,329.72281323269016 L 69.0,315.0 L 61.0,315.0 L 61.0,311.0 L 57.0,311.0 L 57.0,315.0 L 49.0,315.0" fill="none" style="stroke:#000000;stroke-width:0.3" /><path d="M 49.0,343.0 L 49.0,347.3333333333333 L 59.0,347.3333333333333 L 59.0,351.3333333333333 L 49.0,351.3333333333333 L 49.0,355.6666666666667 L 57.434387285919996,355.6666666666667 L 57.434387285919996,359.6666666666667 L 49.0,359.6666666666667 L 49.0,364.0 A 35.0,35.0 0 0,0 69.0,357.72281323269016 L 69.0,343.0 L 61.0,343.0 L 61.0,339.0 L 57.0,339.0 L 57.0,343.0 L 49.0,343.0" fill="none" style="stroke:#000000;stroke-width:0.3" /><path d="M 72.0,7.0 L 72.0,11.333333333333334 L 82.0,11.333333333333334 L 82.0,15.333333333333334 L 72.0,15.333333333333334 L 72.0,19.666666666666668 L 80.43438728592,19.666666666666668 L 80.43438728592,23.666666666666668 L 72.0,23.666666666666668 L 72.0,28.0 A 35.0,35.0 0 0,0 92.0,21.722813232690143 L 92.0,7.0 L 84.0,7.0 L 84.0,3 L 80.0,3 L 80.0,7.0 L 72.0,7.0" fill="none" style="stroke:#000000;stroke-width:0.3" /><path d="M 72.0,35.0 L 72.0,39.333333333333336 L 82.0,39.333333333333336 L 82.0,43.333333333333336 L 72.0,43.333333333333336 L 72.0,47.66666666666667 L 80.43438728592,47.66666666666667 L 80.43438728592,51.66666666666667 L 72.0,51.66666666666667 L 72.0,56.0 A 35.0,35.0 0 0,0 92.0,49.72281323269014 L 92.0,35.0 L 84.0,35.0 L 84.0,31.0 L 80.0,31.0 L 80.0,35.0 L 72.0,35.0" fill="none" style="stroke:#000000;stroke-width:0.3" /><path d="M 72.0,63.0 L 72.0,67.33333333333333 L 82.0,67.33333333333333 L 82.0,71.33333333333333 L 72.0,71.33333333333333 L 72.0,75.66666666666667 L 80.43438728592,75.66666666666667 L 80.43438728592,79.66666666666667 L 72.0,79.66666666666667 L 72.0,84.0 A 35.0,35.0 0 0,0 92.0,77.72281323269014 L 92.0,63.0 L 84.0,63.0 L 84.0,59.0 L 80.0,59.0 L 80.0,63.0 L 72.0,63.0" fill="none" style="stroke:#000000;stroke-width:0.3" /><path d="M 72.0,91.0 L 72.0,95.33333333333333 L 82.0,95.33333333333333 L 82.0,99.33333333333333 L 72.0,99.33333333333333 L 72.0,103.66666666666667 L 80.43438728592,103.66666666666667 L 80.43438728592,107.66666666666667 L 72.0,107.66666666666667 L 72.0,112.0 A 35.0,35.0 0 0,0 92.0,105.72281323269014 L 92.0,91.0 L 84.0,91.0 L 84.0,87.0 L 80.0,87.0 L 80.0,91.0 L 72.0,91.0" fill="none" style="stroke:#000000;stroke-width:0.3" /><path d="M 72.0,119.0 L 72.0,123.33333333333333 L 82.0,123.33333333333333 L 82.0,127.33333333333333 L 72.0,127.33333333333333 L 72.0,131.66666666666666 L 80.43438728592,131.66666666666666 L 80.43438728592,135.66666666666666 L 72.0,135.66666666666666 L 72.0,140.0 A 35.0,35.0 0 0,0 92.0,133.72281323269016 L 92.0,119.0 L 84.0,119.0 L 84.0,115.0 L 80.0,115.0 L 80.0,119.0 L 72.0,119.0" fill="none" style="stroke:#000000;stroke-width:0.3" /><path d="M 72.0,147.0 L 72.0,151.33333333333334 L 82.0,151.33333333333334 L 82.0,155.33333333333334 L 72.0,155.33333333333334 L 72.0,159.66666666666666 L 80.43438728592,159.66666666666666 L 80.43438728592,163.66666666666666 L 72.0,163.66666666666666 L 72.0,168.0 A 35.0,35.0 0 0,0 92.0,161.72281323269016 L 92.0,147.0 L 84.0,147.0 L 84.0,143.0 L 80.0,143.0 L 80.0,147.0 L 72.0,147.0" fill="none" style="stroke:#000000;stroke-width:0.3" /><path d="M 72.0,175.0 L 72.0,179.33333333333334 L 82.0,179.33333333333334 L 82.0,183.33333333333334 L 72.0,183.33333333333334 L 72.0,187.66666666666666 L 80.43438728592,187.66666666666666 L 80.43438728592,191.66666666666666 L 72.0,191.66666666666666 L 72.0,196.0 A 35.0,35.0 0 0,0 92.0,189.72281323269016 L 92.0,175.0 L 84.0,175.0 L 84.0,171.0 L 80.0,171.0 L 80.0,175.0 L 72.0,175.0" fill="none" style="stroke:#000000;stroke-width:0.3" /><path d="M 72.0,203.0 L 72.0,207.33333333333334 L 82.0,207.33333333333334 L 82.0,211.33333333333334 L 72.0,211.33333333333334 L 72.0,215.66666666666666 L 80.43438728592,215.66666666666666 L 80.43438728592,219.66666666666666 L 72.0,219.66666666666666 L 72.0,224.0 A 35.0,35.0 0 0,0 92.0,217.72281323269016 L 92.0,203.0 L 84.0,203.0 L 84.0,199.0 L 80.0,199.0 L 80.0,203.0 L 72.0,203.0" fill="none" style="stroke:#000000;stroke-width:0.3" /><path d="M 72.0,231.0 L 72.0,235.33333333333334 L 82.0,235.33333333333334 L 82.0,239.33333333333334 L 72.0,239.33333333333334 L 72.0,243.66666666666666 L 80.43438728592,243.66666666666666 L 80.43438728592,247.66666666666666 L 72.0,247.66666666666666 L 72.0,252.0 A 35.0,35.0 0 0,0 92.0,245.72281323269016 L 92.0,231.0 L 84.0,231.0 L 84.0,227.0 L 80.0,227.0 L 80.0,231.0 L 72.0,231.0" fill="none" style="stroke:#000000;stroke-width:0.3" /><path d="M 72.0,259.0 L 72.0,263.3333333333333 L 82.0,263.3333333333333 L 82.0,267.3333333333333 L 72.0,267.3333333333333 L 72.0,271.6666666666667 L 80.43438728592,271.6666666666667 L 80.43438728592,275.6666666666667 L 72.0,275.6666666666667 L 72.0,280.0 A 35.0,35.0 0 0,0 92.0,273.72281323269016 L 92.0,259.0 L 84.0,259.0 L 84.0,255.0 L 80.0,255.0 L 80.0,259.0 L 72.0,259.0" fill="none" style="stroke:#000000;stroke-width:0.3" /><path d="M 95.0,7.0 L 95.0,28.0 A 49.49747468305833,35.0 0 0,0 123.2842712474619,21.722813232690143 L 123.2842712474619,7.0 L 111.14213562373095,7.0 L 111.14213562373095,3 L 107.14213562373095,3 L 107.14213562373095,7.0 L 95.0,7.0" fill="none" style="stroke:#000000;stroke-width:0.3" /><path d="M 95.0,35.0 L 95.0,56.0 A 49.49747468305833,35.0 0 0,0 123.2842712474619,49.72281323269014 L 123.2842712474619,35.0 L 111.14213562373095,35.0 L 111.14213562373095,31.0 L 107.14213562373095,31.0 L 107.14213562373095,35.0 L 95.0,35.0" fill="none" style="stroke:#000000;stroke-width:0.3" /><path d="M 95.0,63.0 L 95.0,84.0 A 49.49747468305833,35.0 0 0,0 123.2842712474619,77.72281323269014 L 123.2842712474619,63.0 L 111.14213562373095,63.0 L 111.14213562373095,59.0 L 107.14213562373095,59.0 L 107.14213562373095,63.0 L 95.0,63.0" fill="none" style="stroke:#000000;stroke-width:0.3" /><path d="M 95.0,91.0 L 95.0,112.0 A 49.49747468305833,35.0 0 0,0 123.2842712474619,105.72281323269014 L 123.2842712474619,91.0 L 111.14213562373095,91.0 L 111.14213562373095,87.0 L 107.14213562373095,87.0 L 107.14213562373095,91.0 L 95.0,91.0" fill="none" style="stroke:#000000;stroke-width:0.3" /><path d="M 126.2842712474619,3 L 146.2842712474619,23.0 L 146.2842712474619,28.171572875253815 L 136.2842712474619,28.171572875253815 L 136.2842712474619,32.171572875253815 L 146.2842712474619,32.171572875253815 L 146.2842712474619,38.171572875253815 L 136.2842712474619,38.171572875253815 L 136.2842712474619,42.171572875253815 L 146.2842712474619,42.171572875253815 L 146.2842712474619,48.171572875253815 L 136.2842712474619,48.171572875253815 L 136.2842712474619,52.171572875253815 L 146.2842712474619,52.171572875253815 L 146.2842712474619,58.171572875253815 L 136.2842712474619,58.171572875253815 L 136.2842712474619,62.171572875253815 L 146.2842712474619,62.171572875253815 L 146.2842712474619,68.17157287525382 L 136.2842712474619,68.17157287525382 L 136.2842712474619,72.17157287525382 L 146.2842712474619,72.17157287525382 L 146.2842712474619,78.17157287525382 L 136.2842712474619,78.17157287525382 L 136.2842712474619,82.17157287525382 L 146.2842712474619,82.17157287525382 L 146.2842712474619,88.17157287525382 L 136.2842712474619,88.17157287525382 L 136.2842712474619,92.17157287525382 L 146.2842712474619,92.17157287525382 L 146.2842712474619,98.17157287525382 L 136.2842712474619,98.17157287525382 L 136.2842712474619,102.17157287525382 L 146.2842712474619,102.17157287525382 L 146.2842712474619,108.17157287525382 L 136.2842712474619,108.17157287525382 L 136.2842712474619,112.17157287525382 L 146.2842712474619,112.17157287525382 L 146.2842712474619,118.17157287525382 L 136.2842712474619,118.17157287525382 L 136.2842712474619,122.17157287525382 L 146.2842712474619,122.17157287525382 L 146.2842712474619,128.17157287525382 L 136.2842712474619,128.17157287525382 L 136.2842712474619,132.17157287525382 L 146.2842712474619,132.17157287525382 L 146.2842712474619,138.17157287525382 L 136.2842712474619,138.17157287525382 L 136.2842712474619,142.17157287525382 L 146.2842712474619,142.17157287525382 L 146.2842712474619,148.17157287525382 L 136.2842712474619,148.17157287525382 L 136.2842712474619,152.17157287525382 L 146.2842712474619,152.17157287525382 L 146.2842712474619,157.34314575050763 L 126.2842712474619,177.34314575050763 L 126.2842712474619,3" fill="none" style="stroke:#000000;stroke-width:0.3" /><path d="M 149.2842712474619,3 L 169.2842712474619,23.0 L 169.2842712474619,28.171572875253815 L 159.2842712474619,28.171572875253815 L 159.2842712474619,32.171572875253815 L 169.2842712474619,32.171572875253815 L 169.2842712474619,38.171572875253815 L 159.2842712474619,38.171572875253815 L 159.2842712474619,42.171572875253815 L 169.2842712474619,42.171572875253815 L 169.2842712474619,48.171572875253815 L 159.2842712474619,48.171572875253815 L 159.2842712474619,52.171572875253815 L 169.2842712474619,52.171572875253815 L 169.2842712474619,58.171572875253815 L 159.2842712474619,58.171572875253815 L 159.2842712474619,62.171572875253815 L 169.2842712474619,62.171572875253815 L 169.2842712474619,68.17157287525382 L 159.2842712474619,68.17157287525382 L 159.2842712474619,72.17157287525382 L 169.2842712474619,72.17157287525382 L 169.2842712474619,78.17157287525382 L 159.2842712474619,78.17157287525382 L 159.2842712474619,82.17157287525382 L 169.2842712474619,82.17157287525382 L 169.2842712474619,88.17157287525382 L 159.2842712474619,88.17157287525382 L 159.2842712474619,92.17157287525382 L 169.2842712474619,92.17157287525382 L 169.2842712474619,98.17157287525382 L 159.2842712474619,98.17157287525382 L 159.2842712474619,102.17157287525382 L 169.2842712474619,102.17157287525382 L 169.2842712474619,108.17157287525382 L 159.2842712474619,108.17157287525382 L 159.2842712474619,112.17157287525382 L 169.2842712474619,112.17157287525382 L 169.2842712474619,118.17157287525382 L 159.2842712474619,118.17157287525382 L 159.2842712474619,122.17157287525382 L 169.2842712474619,122.17157287525382 L 169.2842712474619,127.34314575050763 L 149.2842712474619,147.34314575050763 L 149.2842712474619,3" fill="none" style="stroke:#000000;stroke-width:0.3" /><path d="M 172.2842712474619,3 L 189.1530458193019,19.86877457183999 L 189.1530458193019,28.171572875253815 L 180.7186585333819,28.171572875253815 L 180.7186585333819,32.171572875253815 L 189.1530458193019,32.171572875253815 L 189.1530458193019,38.171572875253815 L 180.7186585333819,38.171572875253815 L 180.7186585333819,42.171572875253815 L 189.1530458193019,42.171572875253815 L 189.1530458193019,48.171572875253815 L 180.7186585333819,48.171572875253815 L 180.7186585333819,52.171572875253815 L 189.1530458193019,52.171572875253815 L 189.1530458193019,58.171572875253815 L 180.7186585333819,58.171572875253815 L 180.7186585333819,62.171572875253815 L 189.1530458193019,62.171572875253815 L 189.1530458193019,68.17157287525382 L 180.7186585333819,68.17157287525382 L 180.7186585333819,72.17157287525382 L 189.1530458193019,72.17157287525382 L 189.1530458193019,78.17157287525382 L 180.7186585333819,78.17157287525382 L 180.7186585333819,82.17157287525382 L 189.1530458193019,82.17157287525382 L 189.1530458193019,88.17157287525382 L 180.7186585333819,88.17157287525382 L 180.7186585333819,92.17157287525382 L 189.1530458193019,92.17157287525382 L 189.1530458193019,98.17157287525382 L 180.7186585333819,98.17157287525382 L 180.7186585333819,102.17157287525382 L 189.1530458193019,102.17157287525382 L 189.1530458193019,108.17157287525382 L 180.7186585333819,108.17157287525382 L 180.7186585333819,112.17157287525382 L 189.1530458193019,112.17157287525382 L 189.1530458193019,118.17157287525382 L 180.7186585333819,118.17157287525382 L 180.7186585333819,122.17157287525382 L 189.1530458193019,122.17157287525382 L 189.1530458193019,128.17157287525382 L 180.7186585333819,128.17157287525382 L 180.7186585333819,132.17157287525382 L 189.1530458193019,132.17157287525382 L 189.1530458193019,138.17157287525382 L 180.7186585333819,138.17157287525382 L 180.7186585333819,142.17157287525382 L 189.1530458193019,142.17157287525382 L 189.1530458193019,148.17157287525382 L 180.7186585333819,148.17157287525382 L 180.7186585333819,152.17157287525382 L 189.1530458193019,152.17157287525382 L 189.1530458193019,160.47437117866764 L 172.2842712474619,177.34314575050763 L 172.2842712474619,3" fill="none" style="stroke:#000000;stroke-width:0.3" /><path d="M 192.1530458193019,3 L 209.0218203911419,19.86877457183999 L 209.0218203911419,28.171572875253815 L 200.5874331052219,28.171572875253815 L 200.5874331052219,32.171572875253815 L 209.0218203911419,32.171572875253815 L 209.0218203911419,38.171572875253815 L 200.5874331052219,38.171572875253815 L 200.5874331052219,42.171572875253815 L 209.0218203911419,42.171572875253815 L 209.0218203911419,48.171572875253815 L 200.5874331052219,48.171572875253815 L 200.5874331052219,52.171572875253815 L 209.0218203911419,52.171572875253815 L 209.0218203911419,58.171572875253815 L 200.5874331052219,58.171572875253815 L 200.5874331052219,62.171572875253815 L 209.0218203911419,62.171572875253815 L 209.0218203911419,68.17157287525382 L 200.5874331052219,68.17157287525382 L 200.5874331052219,72.17157287525382 L 209.0218203911419,72.17157287525382 L 209.0218203911419,78.17157287525382 L 200.5874331052219,78.17157287525382 L 200.5874331052219,82.17157287525382 L 209.0218203911419,82.17157287525382 L 209.0218203911419,88.17157287525382 L 200.5874331052219,88.17157287525382 L 200.5874331052219,92.17157287525382 L 209.0218203911419,92.17157287525382 L 209.0218203911419,98.17157287525382 L 200.5874331052219,98.17157287525382 L 200.5874331052219,102.17157287525382 L 209.0218203911419,102.17157287525382 L 209.0218203911419,108.17157287525382 L 200.5874331052219,108.17157287525382 L 200.5874331052219,112.17157287525382 L 209.0218203911419,112.17157287525382 L 209.0218203911419,118.17157287525382 L 200.5874331052219,118.17157287525382 L 200.5874331052219,122.17157287525382 L 209.0218203911419,122.17157287525382 L 209.0218203911419,130.47437117866764 L 192.1530458193019,147.34314575050763 L 192.1530458193019,3" fill="none" style="stroke:#000000;stroke-width:0.3" /><path d="M 212.0218203911419,3 L 232.0218203911419,23.0 L 232.0218203911419,28.171572875253815 L 222.0218203911419,28.171572875253815 L 222.0218203911419,32.171572875253815 L 232.0218203911419,32.171572875253815 L 232.0218203911419,38.171572875253815 L 222.0218203911419,38.171572875253815 L 222.0218203911419,42.171572875253815 L 232.0218203911419,42.171572875253815 L 232.0218203911419,48.171572875253815 L 222.0218203911419,48.171572875253815 L 222.0218203911419,52.171572875253815 L 232.0218203911419,52.171572875253815 L 232.0218203911419,58.171572875253815 L 222.0218203911419,58.171572875253815 L 222.0218203911419,62.171572875253815 L 232.0218203911419,62.171572875253815 L 232.0218203911419,68.17157287525382 L 222.0218203911419,68.17157287525382 L 222.0218203911419,72.17157287525382 L 232.0218203911419,72.17157287525382 L 232.0218203911419,78.17157287525382 L 222.0218203911419,78.17157287525382 L 222.0218203911419,82.17157287525382 L 232.0218203911419,82.17157287525382 L 232.0218203911419,88.17157287525382 L 222.0218203911419,88.17157287525382 L 222.0218203911419,92.17157287525382 L 232.0218203911419,92.17157287525382 L 232.0218203911419,98.17157287525382 L 222.0218203911419,98.17157287525382 L 222.0218203911419,102.17157287525382 L 232.0218203911419,102.17157287525382 L 232.0218203911419,108.17157287525382 L 222.0218203911419,108.17157287525382 L 222.0218203911419,112.17157287525382 L 232.0218203911419,112.17157287525382 L 232.0218203911419,118.17157287525382 L 222.0218203911419,118.17157287525382 L 222.0218203911419,122.17157287525382 L 232.0218203911419,122.17157287525382 L 232.0218203911419,128.17157287525382 L 222.0218203911419,128.17157287525382 L 222.0218203911419,132.17157287525382 L 232.0218203911419,132.17157287525382 L 232.0218203911419,138.17157287525382 L 222.0218203911419,138.17157287525382 L 222.0218203911419,142.17157287525382 L 232.0218203911419,142.17157287525382 L 232.0218203911419,148.17157287525382 L 222.0218203911419,148.17157287525382 L 222.0218203911419,152.17157287525382 L 232.0218203911419,152.17157287525382 L 232.0218203911419,157.34314575050763 L 212.0218203911419,177.34314575050763 L 212.0218203911419,3" fill="none" style="stroke:#000000;stroke-width:0.3" /><path d="M 235.0218203911419,3 L 255.0218203911419,23.0 L 255.0218203911419,28.171572875253815 L 245.0218203911419,28.171572875253815 L 245.0218203911419,32.171572875253815 L 255.0218203911419,32.171572875253815 L 255.0218203911419,38.171572875253815 L 245.0218203911419,38.171572875253815 L 245.0218203911419,42.171572875253815 L 255.0218203911419,42.171572875253815 L 255.0218203911419,48.171572875253815 L 245.0218203911419,48.171572875253815 L 245.0218203911419,52.171572875253815 L 255.0218203911419,52.171572875253815 L 255.0218203911419,58.171572875253815 L 245.0218203911419,58.171572875253815 L 245.0218203911419,62.171572875253815 L 255.0218203911419,62.171572875253815 L 255.0218203911419,68.17157287525382 L 245.0218203911419,68.17157287525382 L 245.0218203911419,72.17157287525382 L 255.0218203911419,72.17157287525382 L 255.0218203911419,78.17157287525382 L 245.0218203911419,78.17157287525382 L 245.0218203911419,82.17157287525382 L 255.0218203911419,82.17157287525382 L 255.0218203911419,88.17157287525382 L 245.0218203911419,88.17157287525382 L 245.0218203911419,92.17157287525382 L 255.0218203911419,92.17157287525382 L 255.0218203911419,98.17157287525382 L 245.0218203911419,98.17157287525382 L 245.0218203911419,102.17157287525382 L 255.0218203911419,102.17157287525382 L 255.0218203911419,108.17157287525382 L 245.0218203911419,108.17157287525382 L 245.0218203911419,112.17157287525382 L 255.0218203911419,112.17157287525382 L 255.0218203911419,118.17157287525382 L 245.0218203911419,118.17157287525382 L 245.0218203911419,122.17157287525382 L 255.0218203911419,122.17157287525382 L 255.0218203911419,127.34314575050763 L 235.0218203911419,147.34314575050763 L 235.0218203911419,3" fill="none" style="stroke:#000000;stroke-width:0.3" /><path d="M 258.0218203911419,3 L 274.8905949629819,19.86877457183999 L 274.8905949629819,28.171572875253815 L 266.45620767706185,28.171572875253815 L 266.45620767706185,32.171572875253815 L 274.8905949629819,32.171572875253815 L 274.8905949629819,38.171572875253815 L 266.45620767706185,38.171572875253815 L 266.45620767706185,42.171572875253815 L 274.8905949629819,42.171572875253815 L 274.8905949629819,48.171572875253815 L 266.45620767706185,48.171572875253815 L 266.45620767706185,52.171572875253815 L 274.8905949629819,52.171572875253815 L 274.8905949629819,58.171572875253815 L 266.45620767706185,58.171572875253815 L 266.45620767706185,62.171572875253815 L 274.8905949629819,62.171572875253815 L 274.8905949629819,68.17157287525382 L 266.45620767706185,68.17157287525382 L 266.45620767706185,72.17157287525382 L 274.8905949629819,72.17157287525382 L 274.8905949629819,78.17157287525382 L 266.45620767706185,78.17157287525382 L 266.45620767706185,82.17157287525382 L 274.8905949629819,82.17157287525382 L 274.8905949629819,88.17157287525382 L 266.45620767706185,88.17157287525382 L 266.45620767706185,92.17157287525382 L 274.8905949629819,92.17157287525382 L 274.8905949629819,98.17157287525382 L 266.45620767706185,98.17157287525382 L 266.45620767706185,102.17157287525382 L 274.8905949629819,102.17157287525382 L 274.8905949629819,108.17157287525382 L 266.45620767706185,108.17157287525382 L 266.45620767706185,112.17157287525382 L 274.8905949629819,112.17157287525382 L 274.8905949629819,118.17157287525382 L 266.45620767706185,118.17157287525382 L 266.45620767706185,122.17157287525382 L 274.8905949629819,122.17157287525382 L 274.8905949629819,128.17157287525382 L 266.45620767706185,128.17157287525382 L 266.45620767706185,132.17157287525382 L 274.8905949629819,132.17157287525382 L 274.8905949629819,138.17157287525382 L 266.45620767706185,138.17157287525382 L 266.45620767706185,142.17157287525382 L 274.8905949629819,142.17157287525382 L 274.8905949629819,148.17157287525382 L 266.45620767706185,148.17157287525382 L 266.45620767706185,152.17157287525382 L 274.8905949629819,152.17157287525382 L 274.8905949629819,160.47437117866764 L 258.0218203911419,177.34314575050763 L 258.0218203911419,3" fill="none" style="stroke:#000000;stroke-width:0.3" /><path d="M 277.8905949629819,3 L 294.7593695348219,19.86877457183999 L 294.7593695348219,28.171572875253815 L 286.32498224890185,28.171572875253815 L 286.32498224890185,32.171572875253815 L 294.7593695348219,32.171572875253815 L 294.7593695348219,38.171572875253815 L 286.32498224890185,38.171572875253815 L 286.32498224890185,42.171572875253815 L 294.7593695348219,42.171572875253815 L 294.7593695348219,48.171572875253815 L 286.32498224890185,48.171572875253815 L 286.32498224890185,52.171572875253815 L 294.7593695348219,52.171572875253815 L 294.7593695348219,58.171572875253815 L 286.32498224890185,58.171572875253815 L 286.32498224890185,62.171572875253815 L 294.7593695348219,62.171572875253815 L 294.7593695348219,68.17157287525382 L 286.32498224890185,68.17157287525382 L 286.32498224890185,72.17157287525382 L 294.7593695348219,72.17157287525382 L 294.7593695348219,78.17157287525382 L 286.32498224890185,78.17157287525382 L 286.32498224890185,82.17157287525382 L 294.7593695348219,82.17157287525382 L 294.7593695348219,88.17157287525382 L 286.32498224890185,88.17157287525382 L 286.32498224890185,92.17157287525382 L 294.7593695348219,92.17157287525382 L 294.7593695348219,98.17157287525382 L 286.32498224890185,98.17157287525382 L 286.32498224890185,102.17157287525382 L 294.7593695348219,102.17157287525382 L 294.7593695348219,108.17157287525382 L 286.32498224890185,108.17157287525382 L 286.32498224890185,112.17157287525382 L 294.7593695348219,112.17157287525382 L 294.7593695348219,118.17157287525382 L 286.32498224890185,118.17157287525382 L 286.32498224890185,122.17157287525382 L 294.7593695348219,122.17157287525382 L 294.7593695348219,130.47437117866764 L 277.8905949629819,147.34314575050763 L 277.8905949629819,3" fill="none" style="stroke:#000000;stroke-width:0.3" /><g id="pictplate"><path d="M 297.7593695348219,3 L 477.7593695348219,3 L 477.7593695348219,153.0 L 297.7593695348219,153.0 L 297.7593695348219,3" fill="none" style="stroke:#000000;stroke-width:0.3" /><path d="M305.7593695348219,31.0 L309.7593695348219,31.0 L309.7593695348219,35.0 L305.7593695348219,35.0 Z" fill="none" style="stroke:#FF0000;stroke-width:0.3" /><path d="M465.7593695348219,31.0 L469.7593695348219,31.0 L469.7593695348219,35.0 L465.7593695348219,35.0 Z" fill="none" style="stroke:#FF0000;stroke-width:0.3" /><path d="M305.7593695348219,41.0 L309.7593695348219,41.0 L309.7593695348219,45.0 L305.7593695348219,45.0 Z" fill="none" style="stroke:#FF0000;stroke-width:0.3" /><path d="M465.7593695348219,41.0 L469.7593695348219,41.0 L469.7593695348219,45.0 L465.7593695348219,45.0 Z" fill="none" style="stroke:#FF0000;stroke-width:0.3" /><path d="M305.7593695348219,51.0 L309.7593695348219,51.0 L309.7593695348219,55.0 L305.7593695348219,55.0 Z" fill="none" style="stroke:#FF0000;stroke-width:0.3" /><path d="M465.7593695348219,51.0 L469.7593695348219,51.0 L469.7593695348219,55.0 L465.7593695348219,55.0 Z" fill="none" style="stroke:#FF0000;stroke-width:0.3" /><path d="M305.7593695348219,61.0 L309.7593695348219,61.0 L309.7593695348219,65.0 L305.7593695348219,65.0 Z" fill="none" style="stroke:#FF0000;stroke-width:0.3" /><path d="M465.7593695348219,61.0 L469.7593695348219,61.0 L469.7593695348219,65.0 L465.7593695348219,65.0 Z" fill="none" style="stroke:#FF0000;stroke-width:0.3" /><path d="M305.7593695348219,71.0 L309.7593695348219,71.0 L309.7593695348219,75.0 L305.7593695348219,75.0 Z" fill="none" style="stroke:#FF0000;stroke-width:0.3" /><path d="M465.7593695348219,71.0 L469.7593695348219,71.0 L469.7593695348219,75.0 L465.7593695348219,75.0 Z" fill="none" style="stroke:#FF0000;stroke-width:0.3" /><path d="M305.7593695348219,81.0 L309.7593695348219,81.0 L309.7593695348219,85.0 L305.7593695348219,85.0 Z" fill="none" style="stroke:#FF0000;stroke-width:0.3" /><path d="M465.7593695348219,81.0 L469.7593695348219,81.0 L469.7593695348219,85.0 L465.7593695348219,85.0 Z" fill="none" style="stroke:#FF0000;stroke-width:0.3" /><path d="M305.7593695348219,91.0 L309.7593695348219,91.0 L309.7593695348219,95.0 L305.7593695348219,95.0 Z" fill="none" style="stroke:#FF0000;stroke-width:0.3" /><path d="M465.7593695348219,91.0 L469.7593695348219,91.0 L469.7593695348219,95.0 L465.7593695348219,95.0 Z" fill="none" style="stroke:#FF0000;stroke-width:0.3" /><path d="M305.7593695348219,101.0 L309.7593695348219,101.0 L309.7593695348219,105.0 L305.7593695348219,105.0 Z" fill="none" style="stroke:#FF0000;stroke-width:0.3" /><path d="M465.7593695348219,101.0 L469.7593695348219,101.0 L469.7593695348219,105.0 L465.7593695348219,105.0 Z" fill="none" style="stroke:#FF0000;stroke-width:0.3" /><path d="M305.7593695348219,111.0 L309.7593695348219,111.0 L309.7593695348219,115.0 L305.7593695348219,115.0 Z" fill="none" style="stroke:#FF0000;stroke-width:0.3" /><path d="M465.7593695348219,111.0 L469.7593695348219,111.0 L469.7593695348219,115.0 L465.7593695348219,115.0 Z" fill="none" style="stroke:#FF0000;stroke-width:0.3" /><path d="M305.7593695348219,121.0 L309.7593695348219,121.0 L309.7593695348219,125.0 L305.7593695348219,125.0 Z" fill="none" style="stroke:#FF0000;stroke-width:0.3" /><path d="M465.7593695348219,121.0 L469.7593695348219,121.0 L469.7593695348219,125.0 L465.7593695348219,125.0 Z" fill="none" style="stroke:#FF0000;stroke-width:0.3" /><path d="M325.7593695348219,11.0 L329.7593695348219,11.0 L329.7593695348219,15.0 L325.7593695348219,15.0 Z" fill="none" style="stroke:#FF0000;stroke-width:0.3" /><path d="M325.7593695348219,141.0 L329.7593695348219,141.0 L329.7593695348219,145.0 L325.7593695348219,145.0 Z" fill="none" style="stroke:#FF0000;stroke-width:0.3" /><path d="M335.7593695348219,11.0 L339.7593695348219,11.0 L339.7593695348219,15.0 L335.7593695348219,15.0 Z" fill="none" style="stroke:#FF0000;stroke-width:0.3" /><path d="M335.7593695348219,141.0 L339.7593695348219,141.0 L339.7593695348219,145.0 L335.7593695348219,145.0 Z" fill="none" style="stroke:#FF0000;stroke-width:0.3" /><path d="M345.7593695348219,11.0 L349.7593695348219,11.0 L349.7593695348219,15.0 L345.7593695348219,15.0 Z" fill="none" style="stroke:#FF0000;stroke-width:0.3" /><path d="M345.7593695348219,141.0 L349.7593695348219,141.0 L349.7593695348219,145.0 L345.7593695348219,145.0 Z" fill="none" style="stroke:#FF0000;stroke-width:0.3" /><path d="M355.7593695348219,11.0 L359.7593695348219,11.0 L359.7593695348219,15.0 L355.7593695348219,15.0 Z" fill="none" style="stroke:#FF0000;stroke-width:0.3" /><path d="M355.7593695348219,141.0 L359.7593695348219,141.0 L359.7593695348219,145.0 L355.7593695348219,145.0 Z" fill="none" style="stroke:#FF0000;stroke-width:0.3" /><path d="M365.7593695348219,11.0 L369.7593695348219,11.0 L369.7593695348219,15.0 L365.7593695348219,15.0 Z" fill="none" style="stroke:#FF0000;stroke-width:0.3" /><path d="M365.7593695348219,141.0 L369.7593695348219,141.0 L369.7593695348219,145.0 L365.7593695348219,145.0 Z" fill="none" style="stroke:#FF0000;stroke-width:0.3" /><path d="M375.7593695348219,11.0 L379.7593695348219,11.0 L379.7593695348219,15.0 L375.7593695348219,15.0 Z" fill="none" style="stroke:#FF0000;stroke-width:0.3" /><path d="M375.7593695348219,141.0 L379.7593695348219,141.0 L379.7593695348219,145.0 L375.7593695348219,145.0 Z" fill="none" style="stroke:#FF0000;stroke-width:0.3" /><path d="M385.7593695348219,11.0 L389.7593695348219,11.0 L389.7593695348219,15.0 L385.7593695348219,15.0 Z" fill="none" style="stroke:#FF0000;stroke-width:0.3" /><path d="M385.7593695348219,141.0 L389.7593695348219,141.0 L389.7593695348219,145.0 L385.7593695348219,145.0 Z" fill="none" style="stroke:#FF0000;stroke-width:0.3" /><path d="M395.7593695348219,11.0 L399.7593695348219,11.0 L399.7593695348219,15.0 L395.7593695348219,15.0 Z" fill="none" style="stroke:#FF0000;stroke-width:0.3" /><path d="M395.7593695348219,141.0 L399.7593695348219,141.0 L399.7593695348219,145.0 L395.7593695348219,145.0 Z" fill="none" style="stroke:#FF0000;stroke-width:0.3" /><path d="M405.7593695348219,11.0 L409.7593695348219,11.0 L409.7593695348219,15.0 L405.7593695348219,15.0 Z" fill="none" style="stroke:#FF0000;stroke-width:0.3" /><path d="M405.7593695348219,141.0 L409.7593695348219,141.0 L409.7593695348219,145.0 L405.7593695348219,145.0 Z" fill="none" style="stroke:#FF0000;stroke-width:0.3" /><path d="M415.7593695348219,11.0 L419.7593695348219,11.0 L419.7593695348219,15.0 L415.7593695348219,15.0 Z" fill="none" style="stroke:#FF0000;stroke-width:0.3" /><path d="M415.7593695348219,141.0 L419.7593695348219,141.0 L419.7593695348219,145.0 L415.7593695348219,145.0 Z" fill="none" style="stroke:#FF0000;stroke-width:0.3" /><path d="M425.7593695348219,11.0 L429.7593695348219,11.0 L429.7593695348219,15.0 L425.7593695348219,15.0 Z" fill="none" style="stroke:#FF0000;stroke-width:0.3" /><path d="M425.7593695348219,141.0 L429.7593695348219,141.0 L429.7593695348219,145.0 L425.7593695348219,145.0 Z" fill="none" style="stroke:#FF0000;stroke-width:0.3" /><path d="M435.7593695348219,11.0 L439.7593695348219,11.0 L439.7593695348219,15.0 L435.7593695348219,15.0 Z" fill="none" style="stroke:#FF0000;stroke-width:0.3" /><path d="M435.7593695348219,141.0 L439.7593695348219,141.0 L439.7593695348219,145.0 L435.7593695348219,145.0 Z" fill="none" style="stroke:#FF0000;stroke-width:0.3" /><path d="M445.7593695348219,11.0 L449.7593695348219,11.0 L449.7593695348219,15.0 L445.7593695348219,15.0 Z" fill="none" style="stroke:#FF0000;stroke-width:0.3" /><path d="M445.7593695348219,141.0 L449.7593695348219,141.0 L449.7593695348219,145.0 L445.7593695348219,145.0 Z" fill="none" style="stroke:#FF0000;stroke-width:0.3" /><path d="M309.173583097195,11.585786437626904 L312.0020102219412,14.414213562373096 L309.173583097195,17.242640687119287 L306.34515597244877,14.414213562373096 Z" fill="none" style="stroke:#FF0000;stroke-width:0.3" /><path d="M309.173583097195,138.75735931288068 L312.0020102219412,141.5857864376269 L309.173583097195,144.4142135623731 L306.34515597244877,141.5857864376269 Z" fill="none" style="stroke:#FF0000;stroke-width:0.3" /><path d="M466.34515597244877,138.75735931288068 L469.173583097195,141.5857864376269 L466.34515597244877,144.4142135623731 L463.51672884770255,141.5857864376269 Z" fill="none" style="stroke:#FF0000;stroke-width:0.3" /><path d="M466.34515597244877,11.585786437626904 L469.173583097195,14.414213562373096 L466.34515597244877,17.242640687119287 L463.51672884770255,14.414213562373096 Z" fill="none" style="stroke:#FF0000;stroke-width:0.3" /></g></svg>